<svg width="205" height="57" viewBox="0 0 205 57" fill="none" xmlns="http://www.w3.org/2000/svg">
<g clip-path="url(#clip0_1_2)">
<path d="M200.19 33.7071H167.534V23.2929H200.19V33.7071ZM204.844 57H167.534C166.103 57 164.538 56.7483 162.841 56.2448C161.144 55.7413 159.566 54.9198 158.108 53.7803C156.676 52.6144 155.469 51.1172 154.488 49.2887C153.533 47.4338 153.056 45.1681 153.056 42.4916V5.20711C153.056 4.49163 153.189 3.8159 153.454 3.17992C153.719 2.54393 154.077 1.98745 154.528 1.51046C155.005 1.03347 155.562 0.662483 156.198 0.39749C156.835 0.132497 157.524 0 158.267 0H204.844V10.3347H163.398V42.4916C163.398 43.8431 163.756 44.8766 164.472 45.5921C165.188 46.3075 166.235 46.6653 167.614 46.6653H204.844V57Z" fill="#821A79"/>
<path d="M144.703 40.2259C144.703 42.2664 144.438 44.1081 143.908 45.751C143.404 47.3675 142.728 48.7985 141.879 50.0439C141.031 51.2894 140.036 52.3494 138.896 53.2239C137.756 54.0983 136.576 54.8138 135.356 55.3703C134.136 55.9268 132.89 56.3375 131.617 56.6025C130.371 56.8675 129.191 57 128.077 57H88.1824V46.6653H128.077C130.066 46.6653 131.604 46.0823 132.691 44.9163C133.805 43.7504 134.362 42.1869 134.362 40.2259C134.362 39.272 134.216 38.3975 133.924 37.6025C133.633 36.8075 133.208 36.1185 132.651 35.5356C132.121 34.9526 131.458 34.5021 130.663 34.1841C129.894 33.8661 129.032 33.7071 128.077 33.7071H104.291C102.621 33.7071 100.818 33.4156 98.882 32.8326C96.9462 32.2232 95.1431 31.2559 93.4725 29.931C91.8285 28.606 90.4496 26.8703 89.3359 24.7238C88.2487 22.5774 87.7051 19.954 87.7051 16.8536C87.7051 13.7531 88.2487 11.143 89.3359 9.02301C90.4496 6.87657 91.8285 5.14086 93.4725 3.8159C95.1431 2.46444 96.9462 1.49721 98.882 0.914226C100.818 0.304742 102.621 0 104.291 0H139.493V10.3347H104.291C102.329 10.3347 100.791 10.931 99.6775 12.1234C98.5903 13.3159 98.0467 14.8926 98.0467 16.8536C98.0467 18.841 98.5903 20.4177 99.6775 21.5837C100.791 22.7232 102.329 23.2929 104.291 23.2929H128.077H128.157C129.27 23.3194 130.45 23.4784 131.697 23.7699C132.943 24.0349 134.176 24.4589 135.396 25.0418C136.642 25.6248 137.822 26.3668 138.936 27.2678C140.05 28.1423 141.031 29.2022 141.879 30.4477C142.754 31.6932 143.444 33.1241 143.948 34.7406C144.451 36.357 144.703 38.1855 144.703 40.2259Z" fill="#821A79"/>
<path d="M77.8009 57H67.4592V0H77.8009V57Z" fill="#821A79"/>
<path d="M56.9983 19.159C56.9983 21.5174 56.7066 23.6241 56.1232 25.4791C55.5398 27.334 54.7443 28.977 53.7367 30.408C52.7555 31.8124 51.6153 33.0181 50.316 34.0251C49.0167 35.0321 47.651 35.8668 46.2191 36.5293C44.8137 37.1653 43.3818 37.629 41.9234 37.9205C40.4914 38.212 39.1391 38.3577 37.8663 38.3577L59.4643 57H43.4746L21.9163 38.3577H14.4783V28.023H37.8663C39.1656 27.917 40.3456 27.652 41.4063 27.228C42.4935 26.7775 43.4216 26.1813 44.1906 25.4393C44.9861 24.6974 45.596 23.8096 46.0202 22.7762C46.4445 21.7162 46.6566 20.5105 46.6566 19.159V12.6402C46.6566 12.0572 46.5771 11.6199 46.418 11.3285C46.2854 11.0105 46.0998 10.7852 45.8611 10.6527C45.649 10.4937 45.4103 10.401 45.1452 10.3745C44.9065 10.348 44.6811 10.3347 44.469 10.3347H10.3416V57H0V5.20711C0 4.49163 0.132585 3.8159 0.397755 3.17992C0.662925 2.54393 1.0209 1.98745 1.47169 1.51046C1.949 1.03347 2.50586 0.662483 3.14226 0.39749C3.77867 0.132497 4.46811 0 5.21059 0H44.469C46.776 0 48.725 0.423989 50.316 1.27197C51.907 2.09345 53.1931 3.14017 54.1742 4.41213C55.1819 5.6576 55.8978 7.00907 56.3221 8.46653C56.7729 9.92399 56.9983 11.2887 56.9983 12.5607V19.159Z" fill="#821A79"/>
</g>
<defs>
<clipPath id="clip0_1_2">
<rect width="205" height="57" fill="white"/>
</clipPath>
</defs>
</svg>
